<?xml version="1.0" encoding="UTF-8"?>
<svg version="1.1" xmlns="http://www.w3.org/2000/svg" width="354" height="354">
<path d="M0 0 C116.82 0 233.64 0 354 0 C354 116.82 354 233.64 354 354 C237.18 354 120.36 354 0 354 C0 237.18 0 120.36 0 0 Z " fill="#FDFEFE" transform="translate(0,0)"/>
<path d="M0 0 C10.57177215 7.7304484 18.03072105 16.36755897 24 28 C24.598125 29.134375 25.19625 30.26875 25.8125 31.4375 C27 34 27 34 27 36 C27.99966797 35.94779297 27.99966797 35.94779297 29.01953125 35.89453125 C43.59064751 35.46656839 57.47561875 40.79171088 68.4375 50.4375 C69.97963561 51.9367284 71.50219542 53.45648146 73 55 C73.64582031 55.63679688 74.29164063 56.27359375 74.95703125 56.9296875 C86.14592077 68.67924033 89.34284517 83.48187483 89.21875 99.2109375 C88.30905662 114.96812643 79.50718186 130.44552313 68 141 C57.3447734 148.55624362 46.49725048 154.15901145 33.2265625 154.05078125 C31.47593506 154.03978394 31.47593506 154.03978394 29.68994141 154.02856445 C28.80226074 154.01913818 27.91458008 154.00971191 27 154 C26.98018066 153.18321777 26.96036133 152.36643555 26.93994141 151.52490234 C26.84441857 147.8079556 26.73484876 144.09154981 26.625 140.375 C26.5940625 139.08980469 26.563125 137.80460938 26.53125 136.48046875 C26.49257813 135.23652344 26.45390625 133.99257812 26.4140625 132.7109375 C26.3826416 131.56931152 26.3512207 130.42768555 26.31884766 129.25146484 C25.98786731 125.8762763 25.30093196 123.12836281 24 120 C23.34 119.67 22.68 119.34 22 119 C22.49291908 116.43682078 23.16763502 114.71702128 24.51367188 112.44482422 C26.42926656 108.0051 26.46763325 104.29066912 26.46875 99.5078125 C26.47636353 98.60304169 26.48397705 97.69827087 26.49182129 96.76608276 C26.50259226 94.8582433 26.50548764 92.95034501 26.50097656 91.04248047 C26.50000522 88.14058928 26.54163965 85.24135308 26.5859375 82.33984375 C26.59114604 80.47917213 26.59383267 78.6184914 26.59375 76.7578125 C26.6183429 75.46993332 26.6183429 75.46993332 26.64343262 74.15603638 C26.57256738 67.90448021 25.1788589 63.69870856 21 59 C13.95688427 53.30709046 6.73973576 53.28448669 -1.98999023 53.35302734 C-3.38395322 53.34623992 -4.77790723 53.33733051 -6.17184448 53.32647705 C-9.93448611 53.30380782 -13.6964373 53.31246854 -17.45908999 53.32837248 C-21.4115517 53.34109876 -25.36395729 53.32927256 -29.31642151 53.32144165 C-35.95299812 53.31236348 -42.58929588 53.32428347 -49.22583008 53.34814453 C-56.87807601 53.3753413 -64.52965545 53.3665452 -72.18188518 53.3390125 C-78.77245961 53.31625647 -85.36283442 53.31315325 -91.95343548 53.32620585 C-95.88065789 53.33396632 -99.80756798 53.3351369 -103.73476982 53.31852341 C-107.42954643 53.30398307 -111.1234717 53.3142719 -114.8181572 53.34299469 C-116.80569569 53.3526629 -118.79330694 53.3379864 -120.7808075 53.32235718 C-128.4966407 53.41271407 -134.62545794 54.41714326 -141 59 C-145.99563885 64.41112549 -146.73060866 69.59080715 -146.59375 76.7578125 C-146.59379028 77.66449677 -146.59383057 78.57118103 -146.59387207 79.50534058 C-146.58854118 81.40971868 -146.57106339 83.31409806 -146.54199219 85.21826172 C-146.50001359 88.12405907 -146.50094124 91.02754308 -146.5078125 93.93359375 C-146.4973224 95.79168268 -146.48438527 97.64975974 -146.46875 99.5078125 C-146.46854858 100.37044708 -146.46834717 101.23308167 -146.46813965 102.12185669 C-146.36817419 107.23951865 -145.52214349 110.44389683 -143 115 C-143 119 -143 119 -144.45703125 121.84765625 C-147.09171574 127.64829905 -146.57707103 134.18722048 -146.6875 140.4375 C-146.72166016 141.74138672 -146.75582031 143.04527344 -146.79101562 144.38867188 C-146.87316153 147.59236198 -146.9424241 150.79578979 -147 154 C-151.24962428 154.14736747 -155.49857713 154.23475716 -159.75 154.3125 C-161.53083984 154.3753418 -161.53083984 154.3753418 -163.34765625 154.43945312 C-175.9469743 154.61157496 -185.77532624 150.55056299 -195 142 C-204.38616608 132.72557399 -209.03224353 121.68036345 -209.375 108.4375 C-209.03959801 96.11512251 -204.00055051 84.5278739 -195 76 C-186.62455256 69.13416527 -178.0333199 64.18271704 -167 65 C-166.95875 63.7625 -166.9175 62.525 -166.875 61.25 C-165.62931251 50.2464272 -158.43928742 39.69480394 -150.203125 32.5859375 C-139.33492003 24.11756459 -128.84185246 19.58810137 -115 19.8125 C-114.24460937 19.81314453 -113.48921875 19.81378906 -112.7109375 19.81445312 C-108.92195058 19.84374942 -105.38365791 20.0833587 -101.65234375 20.75390625 C-98.06060281 21.40324241 -98.06060281 21.40324241 -96.00390625 19.4453125 C-95.29041016 18.29675781 -95.29041016 18.29675781 -94.5625 17.125 C-84.49605187 2.53430551 -69.76957901 -6.88008005 -52.46240234 -10.58544922 C-34.13163194 -13.67147422 -15.50660274 -10.23357662 0 0 Z " fill="#2C7AC3" transform="translate(240,73)"/>
<path d="M0 0 C1.19452789 -0.0112793 2.38905579 -0.02255859 3.61978149 -0.03417969 C4.92692108 -0.02608276 6.23406067 -0.01798584 7.58081055 -0.00964355 C8.97391491 -0.01506481 10.36701355 -0.02218749 11.76010132 -0.03088379 C15.54114715 -0.04912014 19.32175644 -0.04204862 23.10280991 -0.02936745 C27.05943733 -0.01924127 31.01602736 -0.02863206 34.97265625 -0.03491211 C41.6171744 -0.04218965 48.26151471 -0.0325981 54.90600586 -0.0135498 C62.58829023 0.00821927 70.27014997 0.00116797 77.95242405 -0.02085543 C84.54787869 -0.03900648 91.14320548 -0.04156924 97.73867702 -0.03110075 C101.67803851 -0.02486414 105.6172004 -0.02403463 109.55654907 -0.0372467 C113.26015731 -0.04880045 116.96321804 -0.04078895 120.66676712 -0.01766968 C122.67459612 -0.00985623 124.68247142 -0.02174257 126.6902771 -0.03417969 C128.48206894 -0.01726074 128.48206894 -0.01726074 130.31005859 0 C131.34833298 0.0015081 132.38660736 0.0030162 133.4563446 0.00457001 C136.88950226 0.64493007 138.07135455 1.74474014 140.1550293 4.50793457 C140.55275548 7.4886297 140.71649989 10.0919776 140.6862793 13.07043457 C140.6901062 13.89873779 140.69393311 14.72704102 140.69787598 15.58044434 C140.70059355 17.32874774 140.6932431 19.07709191 140.67651367 20.82531738 C140.65510011 23.49909234 140.67631873 26.17018053 140.7019043 28.84387207 C140.69926099 30.54439883 140.69413595 32.24492391 140.6862793 33.94543457 C140.69437622 34.74344482 140.70247314 35.54145508 140.71081543 36.36364746 C140.65380244 39.74398944 140.55738995 41.97346209 138.49078465 44.7186203 C135.54161963 46.97783938 133.95589883 47.01055302 130.2653656 47.01586914 C129.06097839 47.02714844 127.85659119 47.03842773 126.6157074 47.05004883 C125.29764603 47.0419519 123.97958466 47.03385498 122.62158203 47.0255127 C121.21700312 47.03093384 119.81242989 47.03805646 118.40786743 47.04675293 C114.59589916 47.06498885 110.78436388 47.05791837 106.97238803 47.04523659 C102.98459627 47.03511219 98.99684167 47.04450051 95.00904846 47.05078125 C88.31325622 47.05805847 81.61764045 47.04846721 74.921875 47.02941895 C67.17708787 47.00764105 59.43272179 47.01470771 51.68794483 47.03672457 C45.04070186 47.05486595 38.39358575 47.05744339 31.74632603 47.04696989 C27.77513891 47.0407291 23.80414984 47.03991541 19.83297539 47.05311584 C16.10064439 47.06465586 12.36885736 47.05668332 8.63658524 47.03353882 C7.2655649 47.02824209 5.89449891 47.02978204 4.52349663 47.03858948 C2.65491731 47.04948834 0.78623813 47.03340931 -1.08229065 47.01586914 C-2.65214643 47.01360699 -2.65214643 47.01360699 -4.25371647 47.01129913 C-6.8449707 46.50793457 -6.8449707 46.50793457 -8.67988491 44.7186203 C-10.49738431 41.27001591 -10.29257041 37.75274724 -10.27856445 33.94543457 C-10.2838063 33.11713135 -10.28904816 32.28882813 -10.29444885 31.4354248 C-10.30086182 29.68714518 -10.29954142 27.93882236 -10.29101562 26.19055176 C-10.28249932 23.51691906 -10.31128484 20.8454191 -10.34301758 18.17199707 C-10.34462959 16.47147688 -10.34405206 14.7709529 -10.34106445 13.07043457 C-10.35229843 12.27242432 -10.36353241 11.47441406 -10.37510681 10.65222168 C-10.33262904 7.26713298 -10.25037792 5.04587163 -8.17892456 2.29724884 C-5.24168246 0.0454266 -3.67601245 0.00533944 0 0 Z " fill="#3E4854" transform="translate(114.844970703125,195.4920654296875)"/>
<path d="M0 0 C1.76644363 -0.01691895 1.76644363 -0.01691895 3.568573 -0.03417969 C4.85184479 -0.02608276 6.13511658 -0.01798584 7.45727539 -0.00964355 C8.82920067 -0.01506666 10.20112011 -0.02219039 11.57302856 -0.03088379 C15.29210348 -0.04909806 19.01073388 -0.04205776 22.72981644 -0.02936745 C26.62457718 -0.01922982 30.51930024 -0.02863524 34.4140625 -0.03491211 C40.95425235 -0.04218632 47.49426143 -0.03260686 54.03442383 -0.0135498 C61.5923114 0.00821864 69.14976734 0.0011671 76.70764446 -0.02085543 C83.20037623 -0.03901599 89.69297816 -0.04156459 96.18572712 -0.03110075 C100.06194953 -0.02486937 103.93796914 -0.02402024 107.81417847 -0.0372467 C111.4587102 -0.0488143 115.10268625 -0.04076368 118.74715805 -0.01766968 C120.72019439 -0.00987043 122.6932778 -0.02173078 124.66629028 -0.03417969 C126.43273392 -0.01726074 126.43273392 -0.01726074 128.23486328 0 C129.76682091 0.00226215 129.76682091 0.00226215 131.32972717 0.00457001 C134.90769635 0.65062948 136.58649636 1.93166366 139.11743164 4.50793457 C139.61285305 7.5529076 139.79686288 10.02934059 139.74633789 13.07043457 C139.74874985 13.89873779 139.7511618 14.72704102 139.75364685 15.58044434 C139.75266892 17.32878414 139.73928785 19.07715509 139.71435547 20.82531738 C139.68004321 23.49924045 139.69369724 26.16985849 139.71313477 28.84387207 C139.7062361 30.54440695 139.69656353 32.24493331 139.68383789 33.94543457 C139.68879776 34.74344482 139.69375763 35.54145508 139.6988678 36.36364746 C139.62732292 39.74102062 139.51739245 41.97696635 137.45219517 44.7186203 C134.50373244 46.97826089 132.9179903 47.01055347 129.22776794 47.01586914 C128.02338074 47.02714844 126.81899353 47.03842773 125.57810974 47.05004883 C124.26004837 47.0419519 122.941987 47.03385498 121.58398438 47.0255127 C120.17940546 47.03093384 118.77483223 47.03805646 117.37026978 47.04675293 C113.5583015 47.06498885 109.74676622 47.05791837 105.93479037 47.04523659 C101.94699861 47.03511219 97.95924402 47.04450051 93.97145081 47.05078125 C87.27565856 47.05805847 80.5800428 47.04846721 73.88427734 47.02941895 C66.13949022 47.00764105 58.39512413 47.01470771 50.65034717 47.03672457 C44.0031042 47.05486595 37.3559881 47.05744339 30.70872837 47.04696989 C26.73754125 47.0407291 22.76655218 47.03991541 18.79537773 47.05311584 C15.06304673 47.06465586 11.3312597 47.05668332 7.59898758 47.03353882 C6.22796724 47.02824209 4.85690125 47.02978204 3.48589897 47.03858948 C1.61731965 47.04948834 -0.25135952 47.03340931 -2.11988831 47.01586914 C-3.68974409 47.01360699 -3.68974409 47.01360699 -5.29131413 47.01129913 C-7.88256836 46.50793457 -7.88256836 46.50793457 -9.71649075 44.7186203 C-11.53449164 41.2719984 -11.35035743 37.7526545 -11.35131836 33.94543457 C-11.35893188 33.11713135 -11.36654541 32.28882813 -11.37438965 31.4354248 C-11.38517731 29.68716441 -11.38804916 27.93883963 -11.38354492 26.19055176 C-11.38257152 23.51660889 -11.42422584 20.84552647 -11.46850586 18.17199707 C-11.47371233 16.47148221 -11.47640106 14.7709574 -11.47631836 13.07043457 C-11.49271362 12.27242432 -11.50910889 11.47441406 -11.52600098 10.65222168 C-11.4796605 6.92933585 -11.37131553 5.00566378 -8.71177673 2.29724884 C-5.47218827 0.24839238 -3.79783042 0.00560804 0 0 Z " fill="#404955" transform="translate(115.882568359375,137.4920654296875)"/>
<path d="M0 0 C1.77700287 -0.01691895 1.77700287 -0.01691895 3.58990479 -0.03417969 C4.88612259 -0.02608276 6.18234039 -0.01798584 7.51783752 -0.00964355 C8.89946734 -0.01506491 10.28109138 -0.02218766 11.66270447 -0.03088379 C15.41282787 -0.04912057 19.16251113 -0.042048 22.91264224 -0.02936745 C26.83810534 -0.01923945 30.76353078 -0.02863275 34.68899536 -0.03491211 C41.28223942 -0.04218998 47.87530427 -0.03259814 54.46852112 -0.0135498 C62.08830275 0.00821032 69.70765611 0.00117462 77.32742733 -0.02085543 C83.87109363 -0.03901631 90.41463111 -0.04156415 96.95831448 -0.03110075 C100.86585034 -0.02486839 104.77318504 -0.02402277 108.68070793 -0.0372467 C112.35559343 -0.04881443 116.02992782 -0.04076338 119.70475388 -0.01766968 C121.69449865 -0.0098698 123.68429011 -0.0217313 125.67401123 -0.03417969 C127.45524384 -0.01726074 127.45524384 -0.01726074 129.27246094 0 C130.81742831 0.00226215 130.81742831 0.00226215 132.39360714 0.00457001 C135.98449241 0.64870765 137.66274211 1.91984118 140.19972229 4.50793457 C140.68264208 7.56508511 140.85591252 10.05447666 140.79347229 13.10559082 C140.79351257 13.93626572 140.79355286 14.76694061 140.79359436 15.62278748 C140.78824192 17.37535181 140.77067069 19.12791574 140.74171448 20.88024902 C140.69980976 23.56483113 140.70064992 26.24690829 140.70753479 28.9317627 C140.69704369 30.63555619 140.684106 32.33933675 140.66847229 34.04309082 C140.66827087 34.84626236 140.66806946 35.6494339 140.66786194 36.47694397 C140.54994547 42.01748817 140.54994547 42.01748817 138.79542542 44.4744873 C135.5708712 46.56284991 133.46790752 46.63923772 129.63322449 46.65510559 C128.44986008 46.66226089 127.26649567 46.6694162 126.04727173 46.67678833 C124.08980263 46.68082169 124.08980263 46.68082169 122.0927887 46.68493652 C120.70983712 46.69120034 119.32688724 46.69784707 117.94393921 46.70484924 C114.18151823 46.72226467 110.41910995 46.73281214 106.65665865 46.74105477 C104.30712316 46.74620303 101.95759163 46.75227879 99.60805893 46.7585659 C92.26003392 46.77761818 84.91201898 46.7918501 77.56397402 46.80017787 C69.07582048 46.80995613 60.58792732 46.83629061 52.09986556 46.87667876 C45.54270218 46.90681111 38.98561357 46.92164393 32.42838228 46.92495888 C28.51018313 46.92731239 24.59226213 46.93631145 20.67413712 46.96142006 C16.98867868 46.98465622 13.30368241 46.98895237 9.61816978 46.97865868 C7.61981637 46.97792523 5.62148666 46.99704712 3.62322998 47.01672363 C2.43422592 47.00977982 1.24522186 47.002836 0.02018738 46.99568176 C-1.0133103 46.99807012 -2.04680798 47.00045847 -3.11162376 47.0029192 C-6.54205162 46.37137305 -7.71905263 45.26692082 -9.80027771 42.50793457 C-10.1980039 39.52723944 -10.3617483 36.92389155 -10.33152771 33.94543457 C-10.33535461 33.11713135 -10.33918152 32.28882813 -10.34312439 31.4354248 C-10.34584196 29.6871214 -10.33849152 27.93877723 -10.32176208 26.19055176 C-10.30034853 23.5167768 -10.32156715 20.84568861 -10.34715271 18.17199707 C-10.3445094 16.47147032 -10.33938436 14.77094523 -10.33152771 13.07043457 C-10.3436731 11.87341919 -10.3436731 11.87341919 -10.35606384 10.65222168 C-10.29898957 7.26824617 -10.20388261 5.04226615 -8.13044643 2.29724884 C-5.20654917 0.0520161 -3.66081173 0.00536215 0 0 Z " fill="#3E4853" transform="translate(114.80027770996094,253.4920654296875)"/>
<path d="M0 0 C1.81219276 -0.01429802 1.81219276 -0.01429802 3.66099548 -0.02888489 C5.62039818 -0.02751778 5.62039818 -0.02751778 7.61938477 -0.02612305 C8.97315096 -0.03001051 10.32691593 -0.03434529 11.68067932 -0.03910828 C14.51779128 -0.04656887 17.3547788 -0.04628051 20.19189453 -0.04101562 C23.82478275 -0.03522203 27.45716096 -0.05214942 31.08996487 -0.0753603 C33.88583852 -0.09010406 36.68158955 -0.09096849 39.47749519 -0.08785057 C41.46723296 -0.08861265 43.45695171 -0.10248145 45.44664001 -0.11653137 C47.26356102 -0.10718819 47.26356102 -0.10718819 49.1171875 -0.09765625 C50.18291489 -0.09828568 51.24864227 -0.0989151 52.34666443 -0.0995636 C55.50484717 0.3260827 56.89006578 1.02484823 59.12329102 3.2746582 C59.5741725 6.36641693 59.7889322 8.31049277 57.97570801 10.93690491 C55.31424294 12.85892553 53.31074734 12.66273116 50.04711914 12.67871094 C48.79572144 12.69139511 47.54432373 12.70407928 46.25500488 12.71714783 C44.88818192 12.71509653 43.52136008 12.71210862 42.15454102 12.70825195 C40.75353746 12.71281249 39.35253614 12.71811768 37.95153809 12.72413635 C35.01602079 12.73307107 32.08077551 12.73064008 29.14526367 12.72070312 C25.38208516 12.70920613 21.61984398 12.72943274 17.85678864 12.75862026 C14.96398958 12.77695896 12.0714162 12.7766947 9.17857361 12.77098274 C7.79107853 12.77082927 6.4035684 12.77689483 5.01612854 12.78927422 C3.07729219 12.80413722 1.13830174 12.79090146 -0.80053711 12.77636719 C-1.90401489 12.77620102 -3.00749268 12.77603485 -4.14440918 12.77586365 C-6.87670898 12.2746582 -6.87670898 12.2746582 -8.76428223 10.43861389 C-10.34635497 7.36107616 -9.86660365 5.52716925 -8.87670898 2.2746582 C-5.41589787 -0.0325492 -4.08148033 0.01765839 0 0 Z " fill="#F6F6F6" transform="translate(183.876708984375,270.725341796875)"/>
<path d="M0 0 C1.81219276 -0.01913956 1.81219276 -0.01913956 3.66099548 -0.03866577 C5.62039818 -0.04200424 5.62039818 -0.04200424 7.61938477 -0.04541016 C8.97315106 -0.0518376 10.32691595 -0.05856592 11.68067932 -0.06558228 C14.51778382 -0.07755507 17.35476655 -0.08126307 20.19189453 -0.08007812 C23.82490686 -0.07987483 27.45713778 -0.10718595 31.08996487 -0.14162254 C33.88584469 -0.16387438 36.68153588 -0.16791623 39.47749519 -0.16685867 C41.46726899 -0.17036241 43.45698391 -0.19203538 45.44664001 -0.21395874 C46.65792068 -0.20780548 47.86920135 -0.20165222 49.1171875 -0.1953125 C50.18291489 -0.19816254 51.24864227 -0.20101257 52.34666443 -0.20394897 C55.81109197 0.41301457 56.99463525 1.53965458 59.12329102 4.29052734 C59.67486054 8.05958577 59.28880218 9.0422606 57.12329102 12.29052734 C54.47328186 12.6782074 54.47328186 12.6782074 51.06884766 12.69458008 C49.16160667 12.71360634 49.16160667 12.71360634 47.21583557 12.73301697 C45.82170449 12.73096552 44.42757452 12.72797748 43.03344727 12.72412109 C41.60859426 12.72868015 40.18374346 12.73398489 38.75889587 12.74000549 C35.77032549 12.74894937 32.78202213 12.74649957 29.79345703 12.73657227 C25.96187438 12.72508555 22.13121371 12.74528159 18.29975224 12.7744894 C15.35633988 12.79282978 12.41314929 12.7925633 9.46969414 12.78685188 C8.05707952 12.78669837 6.64445014 12.79276724 5.23188972 12.80514336 C3.25702069 12.82000622 1.28200038 12.80677069 -0.69287109 12.79223633 C-1.81712997 12.79207016 -2.94138885 12.79190399 -4.09971619 12.79173279 C-6.87670898 12.29052734 -6.87670898 12.29052734 -8.77101135 10.45448303 C-10.34367902 7.37662246 -9.86560696 5.53976356 -8.87670898 2.29052734 C-5.42001196 -0.01393734 -4.0770727 0.0291868 0 0 Z " fill="#F7F7F8" transform="translate(183.876708984375,212.70947265625)"/>
<path d="M0 0 C1.81219276 -0.01429802 1.81219276 -0.01429802 3.66099548 -0.02888489 C5.62039818 -0.02751778 5.62039818 -0.02751778 7.61938477 -0.02612305 C8.97315096 -0.03001051 10.32691593 -0.03434529 11.68067932 -0.03910828 C14.51779128 -0.04656887 17.3547788 -0.04628051 20.19189453 -0.04101562 C23.82478275 -0.03522203 27.45716096 -0.05214942 31.08996487 -0.0753603 C33.88583852 -0.09010406 36.68158955 -0.09096849 39.47749519 -0.08785057 C41.46723296 -0.08861265 43.45695171 -0.10248145 45.44664001 -0.11653137 C47.26356102 -0.10718819 47.26356102 -0.10718819 49.1171875 -0.09765625 C50.18291489 -0.09828568 51.24864227 -0.0989151 52.34666443 -0.0995636 C55.50484717 0.3260827 56.89006578 1.02484823 59.12329102 3.2746582 C59.5741725 6.36641693 59.7889322 8.31049277 57.97570801 10.93690491 C55.31424294 12.85892553 53.31074734 12.66273116 50.04711914 12.67871094 C48.79572144 12.69139511 47.54432373 12.70407928 46.25500488 12.71714783 C44.88818192 12.71509653 43.52136008 12.71210862 42.15454102 12.70825195 C40.75353746 12.71281249 39.35253614 12.71811768 37.95153809 12.72413635 C35.01602079 12.73307107 32.08077551 12.73064008 29.14526367 12.72070312 C25.38208516 12.70920613 21.61984398 12.72943274 17.85678864 12.75862026 C14.96398958 12.77695896 12.0714162 12.7766947 9.17857361 12.77098274 C7.79107853 12.77082927 6.4035684 12.77689483 5.01612854 12.78927422 C3.07729219 12.80413722 1.13830174 12.79090146 -0.80053711 12.77636719 C-1.90401489 12.77620102 -3.00749268 12.77603485 -4.14440918 12.77586365 C-6.87670898 12.2746582 -6.87670898 12.2746582 -8.76428223 10.43861389 C-10.34635497 7.36107616 -9.86660365 5.52716925 -8.87670898 2.2746582 C-5.41589787 -0.0325492 -4.08148033 0.01765839 0 0 Z " fill="#F4F5F6" transform="translate(183.876708984375,154.725341796875)"/>
<path d="M0 0 C17.56726333 -0.04667284 35.13450737 -0.08196565 52.70181847 -0.10362434 C60.85819951 -0.11394711 69.01454208 -0.12802647 77.17089844 -0.15087891 C84.27805723 -0.17078225 91.38518817 -0.18370916 98.49237406 -0.18817699 C102.25731454 -0.19078957 106.02217531 -0.19695087 109.7870903 -0.21146011 C113.98488689 -0.22750712 118.18254396 -0.22798166 122.38037109 -0.22705078 C123.63553024 -0.23424133 124.89068939 -0.24143188 126.18388367 -0.24884033 C127.89187386 -0.24471634 127.89187386 -0.24471634 129.6343689 -0.24050903 C130.62806173 -0.24235262 131.62175457 -0.24419621 132.64555931 -0.24609566 C135 0 135 0 137 2 C136 3 136 3 133.78422451 3.12304783 C132.79698422 3.12212604 131.80974394 3.12120424 130.79258728 3.12025452 C129.66371597 3.12162918 128.53484467 3.12300385 127.37176514 3.12442017 C126.12236145 3.12082489 124.87295776 3.11722961 123.58569336 3.11352539 C122.27856888 3.11367142 120.9714444 3.11381744 119.62471008 3.1139679 C116.02982901 3.11425586 112.43498103 3.10835928 108.84010768 3.10139394 C105.08713748 3.09516026 101.3341666 3.09455659 97.58119202 3.09336853 C90.46969174 3.09025526 83.35820675 3.08204192 76.24671322 3.07201904 C68.15252934 3.06085778 60.05834474 3.05534742 51.96415508 3.05032361 C35.30942775 3.03985931 18.65471582 3.02225994 2 3 C2 2.34 2 1.68 2 1 C1.34 0.67 0.68 0.34 0 0 Z M137 0 C139 1 139 1 139 1 Z " fill="#394550" transform="translate(109,181)"/>
<path d="M0 0 C0.9590625 -0.00773437 1.918125 -0.01546875 2.90625 -0.0234375 C5.5 0.375 5.5 0.375 7.3203125 1.7109375 C9.15626595 4.30072613 8.88476574 6.29687412 8.5 9.375 C7.3203125 11.0390625 7.3203125 11.0390625 5.5 12.375 C2.90625 12.7734375 2.90625 12.7734375 0 12.75 C-0.9590625 12.75773437 -1.918125 12.76546875 -2.90625 12.7734375 C-5.5 12.375 -5.5 12.375 -7.3203125 11.0390625 C-9.15626595 8.44927387 -8.88476574 6.45312588 -8.5 3.375 C-6.12562631 0.0257179 -3.96125007 -0.03194557 0 0 Z " fill="#F2F3F4" transform="translate(125.5,270.625)"/>
<path d="M0 0 C2.6875 1.625 2.6875 1.625 4 4 C3.9375 7.125 3.9375 7.125 3 10 C-0.36351013 12.24234009 -1.62310056 12.27098215 -5.5625 12.25 C-6.53316406 12.25515625 -7.50382813 12.2603125 -8.50390625 12.265625 C-11 12 -11 12 -13 10 C-13.56451613 3.79032258 -13.56451613 3.79032258 -11.7890625 1.3046875 C-8.32742494 -1.21973815 -4.07743678 -0.59296058 0 0 Z " fill="#F2F3F4" transform="translate(152,213)"/>
<path d="M0 0 C1.33804688 0.04060547 1.33804688 0.04060547 2.703125 0.08203125 C3.37859375 0.11683594 4.0540625 0.15164062 4.75 0.1875 C4.75 0.8475 4.75 1.5075 4.75 2.1875 C5.74 2.5175 6.73 2.8475 7.75 3.1875 C8.11507937 8.66369048 8.11507937 8.66369048 6.58203125 10.86328125 C4.07308014 12.67678749 2.32024471 12.58726004 -0.75 12.5625 C-1.7090625 12.57023438 -2.668125 12.57796875 -3.65625 12.5859375 C-6.25 12.1875 -6.25 12.1875 -8.06640625 10.8515625 C-9.92860944 8.23341544 -9.70352637 6.2973951 -9.25 3.1875 C-6.25992517 0.23866758 -4.12334677 -0.16276369 0 0 Z " fill="#F3F3F4" transform="translate(126.25,212.8125)"/>
<path d="M0 0 C2.390625 0.34765625 2.390625 0.34765625 5.078125 1.97265625 C6.390625 4.34765625 6.390625 4.34765625 6.265625 7.47265625 C5.390625 10.34765625 5.390625 10.34765625 3.390625 12.34765625 C0.640625 12.6484375 0.640625 12.6484375 -2.609375 12.66015625 C-3.681875 12.67691406 -4.754375 12.69367188 -5.859375 12.7109375 C-6.766875 12.59105469 -7.674375 12.47117187 -8.609375 12.34765625 C-10.92220087 8.87841744 -11.03416086 7.4256005 -10.609375 3.34765625 C-7.73842702 -0.58832082 -4.53493857 -0.15249062 0 0 Z " fill="#F2F3F4" transform="translate(149.609375,270.65234375)"/>
<path d="M0 0 C1.59134766 -0.02513672 1.59134766 -0.02513672 3.21484375 -0.05078125 C6.0625 0.3125 6.0625 0.3125 7.91796875 1.67578125 C9.55675372 4.01929969 9.48154291 5.51888061 9.0625 8.3125 C7.91796875 9.9453125 7.91796875 9.9453125 6.0625 11.3125 C3.21484375 11.7109375 3.21484375 11.7109375 0 11.6875 C-1.06347656 11.69523438 -2.12695312 11.70296875 -3.22265625 11.7109375 C-4.11855469 11.57945312 -5.01445312 11.44796875 -5.9375 11.3125 C-8.23913882 7.86004176 -8.28240322 6.36511287 -7.9375 2.3125 C-5.24648766 -0.37851234 -3.74674054 0.01362451 0 0 Z " fill="#F5F6F6" transform="translate(146.9375,155.6875)"/>
<path d="M0 0 C1.06347656 0.00515625 2.12695312 0.0103125 3.22265625 0.015625 C4.28355469 0.01046875 5.34445313 0.0053125 6.4375 0 C9.28515625 0.265625 9.28515625 0.265625 12.28515625 2.265625 C12.67614288 5.32835364 12.93247466 7.35037679 11.10546875 9.93359375 C8.60574421 11.76279132 6.85601781 11.66539001 3.78515625 11.640625 C2.82609375 11.64835938 1.86703125 11.65609375 0.87890625 11.6640625 C-1.71484375 11.265625 -1.71484375 11.265625 -3.5390625 9.93359375 C-5.34187788 7.37611147 -5.03765823 5.30008109 -4.71484375 2.265625 C-2.71484375 0.265625 -2.71484375 0.265625 0 0 Z " fill="#F6F6F7" transform="translate(121.71484375,155.734375)"/>
<path d="M0 0 C1.35641602 -0.00193359 1.35641602 -0.00193359 2.74023438 -0.00390625 C3.67287109 -0.00003906 4.60550781 0.00382812 5.56640625 0.0078125 C6.49517578 0.00394531 7.42394531 0.00007813 8.38085938 -0.00390625 C13.0766421 0.00277814 17.51120694 0.16147675 22.12890625 1.1328125 C18.84861898 3.31967068 18.71207035 3.33367816 15.12890625 2.7578125 C6.84217096 1.70651026 -1.53438054 2.05577922 -9.87109375 2.1328125 C-9.87109375 1.8028125 -9.87109375 1.4728125 -9.87109375 1.1328125 C-6.52457411 0.38335286 -3.42728328 0.00474083 0 0 Z " fill="#4385C8" transform="translate(194.87109375,61.8671875)"/>
<path d="M0 0 C0 0.66 0 1.32 0 2 C0.66 2.33 1.32 2.66 2 3 C0.9275 3.433125 -0.145 3.86625 -1.25 4.3125 C-4.16272646 5.55321513 -6.56036166 6.95070379 -9 9 C-9.66 8.67 -10.32 8.34 -11 8 C-9.54712339 6.66072279 -8.08752741 5.32873153 -6.625 4 C-5.81289062 3.2575 -5.00078125 2.515 -4.1640625 1.75 C-2 0 -2 0 0 0 Z " fill="#3F83C4" transform="translate(163,74)"/>
<path d="M0 0 C0.99 0.33 1.98 0.66 3 1 C0.11964908 3.24027294 -2.84866512 5.16172132 -6 7 C-6.625 5.125 -6.625 5.125 -7 3 C-6.34 2.34 -5.68 1.68 -5 1 C-2.375 1.375 -2.375 1.375 0 2 C0 1.34 0 0.68 0 0 Z " fill="#3880C5" transform="translate(103,126)"/>
<path d="M0 0 C0.66 0.33 1.32 0.66 2 1 C1.3125 2.9375 1.3125 2.9375 0 5 C-2.91422611 6.07366225 -4.315664 6.31375694 -7.1640625 5.0078125 C-8.07285156 4.50894531 -8.07285156 4.50894531 -9 4 C-7.54618103 3.30300448 -6.08677047 2.61766134 -4.625 1.9375 C-3.40683594 1.36322266 -3.40683594 1.36322266 -2.1640625 0.77734375 C-1.44992188 0.52082031 -0.73578125 0.26429687 0 0 Z " fill="#4889C8" transform="translate(178,65)"/>
<path d="M0 0 C3 3.75 3 3.75 3 6 C6.63 6 10.26 6 14 6 C14 6.33 14 6.66 14 7 C12.22932584 7.16834933 10.45845388 7.33461909 8.6875 7.5 C7.70136719 7.5928125 6.71523438 7.685625 5.69921875 7.78125 C3 8 3 8 0 8 C0 5.36 0 2.72 0 0 Z " fill="#5B95C8" transform="translate(264,103)"/>
<path d="M0 0 C0 0.66 0 1.32 0 2 C-0.66 2 -1.32 2 -2 2 C-2.33 2.99 -2.66 3.98 -3 5 C-5.97 4.505 -5.97 4.505 -9 4 C-6.43425105 1.43425105 -3.68548192 0 0 0 Z " fill="#E1EDF2" transform="translate(299,220)"/>
<path d="M0 0 C0.33 0.99 0.66 1.98 1 3 C-1.31 5.31 -3.62 7.62 -6 10 C-6.66 9.67 -7.32 9.34 -8 9 C-5.36 6.03 -2.72 3.06 0 0 Z " fill="#DAEBF8" transform="translate(317,203)"/>
<path d="M0 0 C1.5 1.375 1.5 1.375 3 3 C3 3.66 3 4.32 3 5 C2.01 5 1.02 5 0 5 C-0.33 6.32 -0.66 7.64 -1 9 C-0.979375 8.05125 -0.95875 7.1025 -0.9375 6.125 C-0.77448174 3.09333717 -0.77448174 3.09333717 -2 1 C-1.34 0.67 -0.68 0.34 0 0 Z " fill="#387FC5" transform="translate(258,92)"/>
<path d="M0 0 C0.66 0.33 1.32 0.66 2 1 C-0.25 3.5625 -0.25 3.5625 -3 6 C-4.32 5.67 -5.64 5.34 -7 5 C-4.69 3.35 -2.38 1.7 0 0 Z " fill="#DBECF4" transform="translate(306,214)"/>
<path d="M0 0 C2.475 0.99 2.475 0.99 5 2 C4.34 2.66 3.68 3.32 3 4 C0.375 3.625 0.375 3.625 -2 3 C-1.34 2.01 -0.68 1.02 0 0 Z " fill="#45515A" transform="translate(108,139)"/>
<path d="M0 0 C2.4375 1.1875 2.4375 1.1875 3.4375 3.1875 C2.4475 3.5175 1.4575 3.8475 0.4375 4.1875 C-2.25 2.25 -2.25 2.25 -4.5625 0.1875 C-2.5625 -0.8125 -2.5625 -0.8125 0 0 Z " fill="#E4EDF4" transform="translate(300.5625,114.8125)"/>
<path d="M0 0 C2.475 0.495 2.475 0.495 5 1 C5 2.32 5 3.64 5 5 C2.525 4.01 2.525 4.01 0 3 C0 2.01 0 1.02 0 0 Z " fill="#3C82C7" transform="translate(224,66)"/>
</svg>
